<svg width="2880px" height="2048px" viewBox="0 0 1440 1024" class="asemat">
    <title>Landing screen 2.0</title>
    <desc>Created with Sketch.</desc>
    <g id="Landing-screen-2.0" stroke="none" stroke-width="1" fill="none" fill-rule="evenodd">
        <g id="Asemat" transform="translate(118.000000, 87.000000)" fill="#FFFFFF" stroke="#000000" stroke-width="3">
            <circle id="Asema" cx="15" cy="831" r="13.5"></circle>
            <text x="15" y="835" text-anchor="middle" stroke="black" stroke-width="1px"> A </text>
            <circle id="Asema" cx="15" cy="657" r="13.5"></circle>
            <text x="15" y="663" text-anchor="middle" stroke="black" stroke-width="1px"> C </text>
            <circle id="Asema" cx="189" cy="537" r="13.5"></circle>
            <text x="189" y="542" text-anchor="middle" stroke="black" stroke-width="1px"> E </text>
            <circle id="Asema" cx="479" cy="181" r="13.5"></circle>
            <text x="479" y="186" text-anchor="middle" stroke="black" stroke-width="1px"> H </text>
            <circle id="Asema" cx="631" cy="181" r="13.5"></circle>
            <text x="631" y="187" text-anchor="middle" stroke="black" stroke-width="1px"> I </text>
            <circle id="Asema" cx="1156" cy="761" r="13.5"></circle>
            <text x="1156" y="767" text-anchor="middle" stroke="black" stroke-width="1px"> O </text>
            <circle id="Asema" cx="1156" cy="214" r="13.5"></circle>
            <text x="1156" y="220" text-anchor="middle" stroke="black" stroke-width="1px"> K </text>
            <circle id="Asema" cx="1156" cy="630" r="13.5"></circle>
            <text x="1156" y="635" text-anchor="middle" stroke="black" stroke-width="1px"> N </text>
            <circle id="Asema" cx="951" cy="761" r="13.5"></circle>
            <text x="951" y="766" text-anchor="middle" stroke="black" stroke-width="1px"> Q </text>
            <circle id="Asema" cx="1156" cy="330" r="13.5"></circle>
            <text x="1156" y="335" text-anchor="middle" stroke="black" stroke-width="1px"> L </text>
            <rect id="Asema" x="175.5" y="643.5" width="27" height="27"></rect>
            <text x="190" y="662" text-anchor="middle" stroke="black" stroke-width="1px"> D </text>
            <rect id="Asema" x="333.5" y="419.5" width="27" height="27"></rect>
            <text x="348" y="440" text-anchor="middle" stroke="black" stroke-width="1px"> F </text>
            <rect id="Asema" x="1142.5" y="451.5" width="27" height="27"></rect>
            <text x="1155" y="470" text-anchor="middle" stroke="black" stroke-width="1px"> M </text>
            <rect id="Asema" x="576.5" y="643.5" width="27" height="27"></rect>
            <text x="591" y="663" text-anchor="middle" stroke="black" stroke-width="1px"> R </text>
            <path d="M300,814.354102 L286.427051,841.5 L313.572949,841.5 L300,814.354102 Z" id="Asema"></path>
            <path d="M561,337.354102 L547.427051,364.5 L574.572949,364.5 L561,337.354102 Z" id="Asema"></path>
            <path d="M1062,865.354102 L1048.42705,892.5 L1075.57295,892.5 L1062,865.354102 Z" id="Asema"></path>
            <path d="M680,3.35410197 L666.427051,30.5 L693.572949,30.5 L680,3.35410197 Z" id="Asema"></path>
            <text x="561" y="362" text-anchor="middle" stroke="black" stroke-width="1px"> G </text>
            <text x="680" y="28" text-anchor="middle" stroke="black" stroke-width="1px"> J </text>
            <text x="1062" y="889" text-anchor="middle" stroke="black" stroke-width="1px"> P </text>
            <text x="300" y="838" text-anchor="middle" stroke="black" stroke-width="1px"> B </text>
        </g>
    </g>
</svg>