<?xml version="1.0" encoding="UTF-8"?>
<svg width="2880px" height="2048px" viewBox="0 0 1440 1024" version="1.1" 
    xmlns="http://www.w3.org/2000/svg" 
    xmlns:xlink="http://www.w3.org/1999/xlink">
    <!-- Generator: Sketch 64 (93537) - https://sketch.com -->
    <title>Landing screen 2.0</title>
    <desc>Created with Sketch.</desc>
    <g id="Landing-screen-2.0" stroke="none" stroke-width="1" fill="none" fill-rule="evenodd">
        <rect id="Rectangle" fill="#B9B9B9" x="-1" y="-1" width="1442" height="1026"></rect>
        <g id="Kartta">
            <rect id="Rectangle" fill="#9E7373" x="353" y="94" width="200" height="118" rx="59"></rect>
            <g id="Group-3" transform="translate(602.000000, 794.000000)" fill="#D8D8D8">
                <rect id="Rectangle" x="0" y="0" width="60" height="57"></rect>
                <rect id="Rectangle-Copy-3" x="0" y="132" width="60" height="57"></rect>
                <rect id="Rectangle-Copy" x="0" y="66" width="60" height="57"></rect>
                <rect id="Rectangle" x="70" y="0" width="60" height="57"></rect>
                <rect id="Rectangle-Copy-7" x="140" y="0" width="60" height="57"></rect>
                <rect id="Rectangle-Copy-8" x="140" y="66" width="60" height="57"></rect>
                <rect id="Rectangle-Copy-9" x="140" y="132" width="60" height="57"></rect>
                <rect id="Rectangle-Copy-5" x="70" y="132" width="60" height="57"></rect>
                <rect id="Rectangle-Copy-2" x="70" y="66" width="60" height="57"></rect>
                <rect id="Rectangle-Copy-4" x="0" y="198" width="60" height="32"></rect>
                <rect id="Rectangle-Copy-6" x="70" y="198" width="60" height="32"></rect>
                <rect id="Rectangle-Copy-10" x="140" y="198" width="60" height="32"></rect>
            </g>
            <path d="M1371,177 L1440,177 L1440,177 L1440,840 L1371,840 C1361.05887,840 1353,831.941125 1353,822 L1353,195 C1353,185.058875 1361.05887,177 1371,177 Z" id="Rectangle" fill="#598945"></path>
            <rect id="Rectangle" fill="#598945" x="886" y="102" width="94" height="160" rx="10"></rect>
            <rect id="Rectangle-Copy-11" fill="#598945" x="1005" y="102" width="94" height="160" rx="10"></rect>
            <path d="M257.557357,420.463 L524.002172,669.848853 C528.973372,674.501773 531.879795,681.268038 531.996354,688.423107 L532,688.870789 L532,1025 L486.441879,1025 L486.441358,700.406 L219.997828,451.021936 C215.026628,446.369017 212.120205,439.602751 212.003646,432.447682 L212,432 L211.999,296 L1.09139364e-11,296 L1.09139364e-11,295 L211.999,295 L212,0 L257.558121,0 L257.557,295 L357.548104,295 L652.651,566.5 L1147.417,566.5 L1147.41796,0 L1148.41796,0 L1148.41796,567.5 L652.261138,567.5 L357.159,296 L257.557,296 L257.557357,420.463 Z M848.841446,567 L848.841446,1025 L847.841446,1025 L847.841446,567 L848.841446,567 Z" id="Combined-Shape" stroke="#BEECFF" stroke-width="50" stroke-linejoin="round"></path>
        </g>
    </g>
</svg>