<svg width="2880px" height="2048px" viewBox="0 0 1440 1024" class="tiet">
    <title>Landing screen 2.0</title>
    <desc>Created with Sketch.</desc>
    <g id="Landing-screen-2.0" stroke="none" stroke-width="1" fill="none" fill-rule="evenodd">
        <g id="Linjakartta" transform="translate(129.000000, 101.000000)" fill="#AAAAAA" fill-rule="nonzero">
            <path d="M1149,748.4078 L1149,194.982555 L548.823404,332.165777 L334.657903,415.424496 L175.805605,519.655657 L0,640.89961 L0,821 L296.278665,821 L185.778,647 L578.437,647 L937.846,750.542 L1051.25004,870.075307 L1149,748.4078 Z M1141,205.017 L1141,745.591 L1050.749,857.924 L942.152932,743.457553 L579.564694,639 L171.221335,639 L281.721,813 L8,813 L8,645.099 L180.270932,526.292851 L338.341,422.576 L551.178,339.833 L1141,205.017 Z"></path>
            <polygon points="178 639 178 647 4 647 4 639"></polygon>
            <polygon points="182.5 523 182.5 643 174.5 643 174.5 523"></polygon>
            <polygon points="1144.8094 612.004543 1145.1906 619.995457 579.190596 646.995457 578.809404 639.004543"></polygon>
            <polygon points="1142.84612 612.629422 1147.15388 619.370578 942.153881 750.370578 937.846119 743.629422"></polygon>
            <polygon points="1145 743 1145 751 940 751 940 743"></polygon>
            <polygon points="1144.70284 447.011053 1145.29716 454.988947 178.797159 526.988947 178.202841 519.011053"></polygon>
            <polygon points="665.165512 0.861273147 672.834488 3.13872685 622.984777 171 474.386 171 553.59875 334.253861 546.40125 337.746139 461.613183 163 617.015 163"></polygon>
            <polygon points="616.310968 167.453699 623.689032 170.546301 553.689032 337.546301 546.310968 334.453699"></polygon>
            <polygon points="174.667506 640.175645 180.332494 645.824355 6.83249387 819.824355 1.16750613 814.175645"></polygon>
        </g>
    </g>
</svg>